<svg id="Layer_1" data-name="Layer 1" xmlns="http://www.w3.org/2000/svg" viewBox="0 0 437.05 114.95"><defs><style>.cls-1{fill:#187386;}.cls-2,.cls-3{fill:#fff;}.cls-3{stroke:#fff;stroke-miterlimit:10;}</style></defs><title>logo</title><rect class="cls-1" width="437.05" height="114.95"/><path class="cls-2" d="M18,98.28v-80H60.14c15.24,0,23,9.72,23,20.4,0,10.08-6.24,16.8-13.8,18.36,8.52,1.32,15.36,9.59,15.36,19.67,0,12-8,21.6-23.28,21.6ZM65.78,41.65c0-5-3.6-8.76-9.36-8.76H35.06v17.4H56.42C62.18,50.29,65.78,46.69,65.78,41.65Zm1.56,32.63c0-5-3.6-9.35-10.32-9.35h-22V83.52H57C63.5,83.52,67.34,80,67.34,74.28Z"/><path class="cls-2" d="M114.38,98.28v-65H91v-15h63.84v15H131.54v65Z"/><path class="cls-2" d="M184.28,44.92V18.25h11.87c4.64,0,7.48,2.8,7.48,6.8A6.06,6.06,0,0,1,199,31.17a6.66,6.66,0,0,1,5.2,6.56c0,4.27-2.84,7.19-7.72,7.19Zm15.91-19.39c0-2.4-1.6-4.32-4.6-4.32h-8v8.6h8C198.59,29.81,200.19,28,200.19,25.53Zm.52,11.84c0-2.44-1.68-4.6-4.92-4.6H187.6V42h8.19C198.87,42,200.71,40.21,200.71,37.37Z"/><path class="cls-2" d="M226.82,44.92V18.25h3.32V42h12.4v3Z"/><path class="cls-2" d="M289.28,44.92l-2.36-6H273.64l-2.36,6h-3.8l10.76-26.67h4.12l10.72,26.67Zm-9-23.27-5.64,14.4H286Z"/><path class="cls-2" d="M331.34,44.92l-10.12-12-2.68,3v9h-3.32V18.25h3.32V32l11.8-13.76h4.16L323.38,30.89l12.12,14Z"/><path class="cls-2" d="M356.21,44.92V18.25h17.47v3H359.53v8.6H373.4v3H359.53V42h14.15v3Z"/><path class="cls-2" d="M190.87,97.92V74.21h-8.43v-3h20.23v3h-8.48V97.92Z"/><path class="cls-2" d="M243.11,97.92V85.69h-15.6V97.92h-3.32V71.25h3.32V82.73h15.6V71.25h3.31V97.92Z"/><path class="cls-2" d="M267.16,84.61c0-7.88,5.36-13.8,13.24-13.8s13.28,5.92,13.28,13.8S288.28,98.4,280.4,98.4,267.16,92.49,267.16,84.61Zm23.08,0c0-6.24-3.88-10.84-9.84-10.84s-9.8,4.6-9.8,10.84,3.8,10.83,9.8,10.83S290.24,90.81,290.24,84.61Z"/><path class="cls-2" d="M334,97.92V75.49l-9,22.43h-1.36l-9.08-22.43V97.92h-3.32V71.25H316l8.32,20.56,8.28-20.56h4.76V97.92Z"/><path class="cls-2" d="M375.24,97.92l-2.36-6H359.61l-2.36,6h-3.8L364.2,71.25h4.12L379,97.92Zm-9-23.27-5.63,14.4h11.31Z"/><path class="cls-2" d="M397.59,94.16l2-2.55A11,11,0,0,0,408,95.44c4.76,0,6.28-2.55,6.28-4.63,0-6.88-15.8-3-15.8-12.56,0-4.4,3.92-7.44,9.2-7.44a12.54,12.54,0,0,1,9.44,3.76l-2,2.44a10.07,10.07,0,0,0-7.72-3.2c-3.16,0-5.48,1.72-5.48,4.24,0,6,15.79,2.56,15.79,12.52,0,3.83-2.63,7.83-9.83,7.83A13.27,13.27,0,0,1,397.59,94.16Z"/><line class="cls-3" x1="171.51" y1="11.65" x2="171.51" y2="105.09"/></svg>