<?xml version="1.0" encoding="utf-8"?>
<!-- Generator: Adobe Illustrator 23.0.2, SVG Export Plug-In . SVG Version: 6.00 Build 0)  -->
<svg version="1.1" id="Layer_1" xmlns="http://www.w3.org/2000/svg" xmlns:xlink="http://www.w3.org/1999/xlink" x="0px" y="0px"
	 viewBox="0 0 437.05 114.95" style="enable-background:new 0 0 437.05 114.95;" xml:space="preserve">
<style type="text/css">
	.st0{fill:#187386;}
	.st1{fill:none;}
	.st2{fill:#FFFFFF;}
	.st3{font-family:'ProximaNova-Bold';}
	.st4{font-size:120px;}
	.st5{font-family:'ProximaNova-Regular';}
	.st6{font-size:40px;}
	.st7{fill:#FFFFFF;stroke:#FFFFFF;stroke-miterlimit:10;}
</style>
<rect class="st0" width="437.05" height="114.95"/>
<rect x="10.1" y="18.24" class="st1" width="151.75" height="86.84"/>
<text transform="matrix(1 0 0 1 10.104 98.2835)" class="st2 st3 st4">BT</text>
<rect x="181.16" y="18.24" class="st1" width="29.82" height="27.95"/>
<text transform="matrix(1 0 0 1 181.1566 44.9241)" class="st2 st5 st6">B</text>
<rect x="224.14" y="18.24" class="st1" width="29.82" height="27.95"/>
<text transform="matrix(1 0 0 1 224.139 44.9241)" class="st2 st5 st6">L</text>
<rect x="267.12" y="18.24" class="st1" width="29.82" height="27.95"/>
<text transform="matrix(1 0 0 1 267.1215 44.9241)" class="st2 st5 st6">A</text>
<rect x="312.1" y="18.24" class="st1" width="29.82" height="27.95"/>
<text transform="matrix(1 0 0 1 312.1039 44.9241)" class="st2 st5 st6">K</text>
<rect x="353.09" y="18.24" class="st1" width="29.82" height="27.95"/>
<text transform="matrix(1 0 0 1 353.0864 44.9241)" class="st2 st5 st6">E</text>
<rect x="181.16" y="71.24" class="st1" width="29.82" height="27.95"/>
<text transform="matrix(1 0 0 1 181.1566 97.9241)" class="st2 st5 st6">T</text>
<rect x="221.07" y="71.24" class="st1" width="29.82" height="27.95"/>
<text transform="matrix(1 0 0 1 221.0689 97.9241)" class="st2 st5 st6">H</text>
<rect x="265.12" y="71.24" class="st1" width="32.67" height="27.95"/>
<text transform="matrix(1 0 0 1 265.121 97.9241)" class="st2 st5 st6">O</text>
<rect x="308.1" y="71.24" class="st1" width="33.05" height="27.95"/>
<text transform="matrix(1 0 0 1 308.1035 97.9241)" class="st2 st5 st6">M</text>
<rect x="353.09" y="71.24" class="st1" width="29.82" height="27.95"/>
<text transform="matrix(1 0 0 1 353.0864 97.9241)" class="st2 st5 st6">A</text>
<rect x="396.07" y="71.24" class="st1" width="29.82" height="27.95"/>
<text transform="matrix(1 0 0 1 396.0688 97.9241)" class="st2 st5 st6">S</text>
<line class="st7" x1="171.51" y1="11.65" x2="171.51" y2="105.09"/>
</svg>
